<svg xmlns="http://www.w3.org/2000/svg" width="27.272" height="30" viewBox="0 0 27.272 30"><g transform="translate(-15.38 -5.54)"><path d="M39.925,8.266H38.561V5.54H35.835V8.266H22.2V5.54H19.471V8.266H18.106a2.737,2.737,0,0,0-2.726,2.728V32.812a2.734,2.734,0,0,0,2.726,2.728H39.925a2.734,2.734,0,0,0,2.728-2.728V10.994A2.737,2.737,0,0,0,39.925,8.266Zm0,24.546H18.106V15.086H39.925Z"/><rect width="4.111" height="3.631" transform="translate(20.048 18.69)"/><rect width="4.111" height="3.631" transform="translate(26.831 18.69)"/><rect width="4.111" height="3.631" transform="translate(33.615 18.69)"/><rect width="4.111" height="3.631" transform="translate(20.048 25.408)"/><rect width="4.111" height="3.631" transform="translate(26.831 25.408)"/><rect width="4.111" height="3.631" transform="translate(33.615 25.408)"/></g></svg>