<svg xmlns="http://www.w3.org/2000/svg" xmlns:xlink="http://www.w3.org/1999/xlink" width="211.456" height="61.329" viewBox="0 0 211.456 61.329">
  <defs>
    <clipPath id="clip-path">
      <rect width="211.456" height="61.329" fill="none"/>
    </clipPath>
  </defs>
  <g id="OneMV-Logo-w" clip-path="url(#clip-path)">
    <path id="Path_3064" data-name="Path 3064" d="M2608.556,1466c8.4,0,14.517,5.99,14.517,14.35s-6.115,14.351-14.517,14.351c-8.361,0-14.476-5.99-14.476-14.351S2600.195,1466,2608.556,1466Zm0,5.241c-5.116,0-8.4,3.91-8.4,9.109,0,5.158,3.286,9.11,8.4,9.11s8.444-3.951,8.444-9.11c0-5.2-3.328-9.11-8.444-9.11Z" transform="translate(-2524.293 -1436.521)" fill="#fff"/>
    <path id="Path_3065" data-name="Path 3065" d="M3530.25,1687.073c0-2.787-1.456-3.743-3.7-3.743a5.722,5.722,0,0,0-4.576,2.371v13.519h-5.282v-20.091h5.282v2.621a9.2,9.2,0,0,1,7.029-3.12c4.41,0,6.531,2.5,6.531,6.406v14.184h-5.282Z" transform="translate(-3413.879 -1641.54)" fill="#fff"/>
    <path id="Path_3066" data-name="Path 3066" d="M4163.85,1678.63c5.99,0,10.066,4.492,10.066,11.065v1.164h-14.934c.333,2.537,2.37,4.659,5.781,4.659a8.214,8.214,0,0,0,5.366-2l2.33,3.411a12.529,12.529,0,0,1-8.279,2.787c-6.113,0-10.731-4.118-10.731-10.565A10.225,10.225,0,0,1,4163.85,1678.63Zm-4.949,8.652h9.9a4.659,4.659,0,0,0-4.951-4.451,4.828,4.828,0,0,0-4.951,4.451Z" transform="translate(-4027.844 -1641.54)" fill="#fff"/>
    <path id="Path_3067" data-name="Path 3067" d="M4859.665,1486.539l-7.82,19.966h-2.577l-7.82-19.966V1506.5h-5.906V1478.76h8.278l6.736,17.3,6.738-17.3h8.318V1506.5h-5.947Z" transform="translate(-4685.519 -1448.825)" fill="#fff"/>
    <path id="Path_3068" data-name="Path 3068" d="M5746.51,1478.76h6.738l7.7,21.339,7.654-21.339h6.738l-10.69,27.744h-7.4Z" transform="translate(-5563.881 -1448.825)" fill="#fff"/>
    <path id="Path_3069" data-name="Path 3069" d="M670.981,793.575l-.02.02v3.032h-.4a22.912,22.912,0,0,1-4.488-44.744l-.944-5.253a28.218,28.218,0,0,0,5.792,55.348l.042,0v2.231l.02.021,5.328-5.326Z" transform="translate(-644.49 -742.902)" fill="#fff"/>
    <path id="Path_3070" data-name="Path 3070" d="M1367.164,671.606a28.169,28.169,0,0,0-26.3-26.365V642.5l-.02-.02-5.328,5.328,5.328,5.328.02-.02v-2.551a22.853,22.853,0,0,1,20.943,20.68V696.2h-15.434v5.352h16.179a4.611,4.611,0,0,0,4.606-4.606V675.187A28.346,28.346,0,0,0,1367.164,671.606Z" transform="translate(-1310.784 -642.48)" fill="#fff"/>
    <ellipse id="Ellipse_10" data-name="Ellipse 10" cx="11.387" cy="11.387" rx="11.387" ry="11.387" transform="translate(17.757 20.043)" fill="#fff"/>
  </g>
</svg>
