<svg id="logo-onemv" xmlns="http://www.w3.org/2000/svg" viewBox="0 0 7208.65 2998.29"><defs><style>.cls-1{fill:#0a5587;}.cls-2{fill:#0098a7;}.cls-3{fill:none;}</style></defs><title>ic-logo-onemv</title><path class="cls-1" d="M2998.47,1465.78c234.72,0,405.54,167.33,405.54,400.9s-170.82,400.9-405.54,400.9c-233.57,0-404.39-167.33-404.39-400.9S2764.9,1465.78,2998.47,1465.78Zm0,146.41c-142.94,0-234.74,109.23-234.74,254.49,0,144.09,91.8,254.48,234.74,254.48s235.89-110.39,235.89-254.48C3234.36,1721.42,3141.39,1612.19,2998.47,1612.19Z"/><path class="cls-1" d="M3895.51,1914.32c0-77.86-40.67-104.58-103.42-104.58-58.1,0-103.42,32.54-127.82,66.23v377.66H3516.69V1692.37h147.58v73.21c36-43,104.58-87.15,196.38-87.15,123.17,0,182.44,69.72,182.44,179v396.25H3895.51Z"/><path class="cls-1" d="M4444,1678.43c167.33,0,281.21,125.5,281.21,309.1v32.53H4308c9.3,70.89,66.24,130.16,161.52,130.16,52.3,0,113.88-20.93,149.91-55.79l65.07,95.29c-55.78,51.13-144.09,77.86-231.24,77.86-170.82,0-299.81-115-299.81-295.16C4153.44,1809.74,4273.13,1678.43,4444,1678.43Zm-138.28,241.7h276.56c-3.49-53.45-40.67-124.34-138.28-124.34C4352.15,1795.79,4312.64,1864.36,4305.67,1920.13Z"/><path class="cls-1" d="M5509.49,1695.86,5291,2253.63h-72l-218.46-557.77v557.77h-165V1478.56h231.25L5255,1962l188.25-483.41h232.4v775.07H5509.49Z"/><path class="cls-1" d="M5746.51,1478.56h188.25l215,596.12,213.81-596.12h188.25l-298.63,775.07H6046.31Z"/><path class="cls-2" d="M1384.55,2057.91l-.57.57v84.68h-11.23a639.17,639.17,0,0,1-392.7-184.43c-249.66-249.66-249.66-655.89,0-905.55a636.49,636.49,0,0,1,267.33-160L1221,746.43A783.8,783.8,0,0,0,875.13,948.26c-307.52,307.52-307.52,807.88,0,1115.4a785.65,785.65,0,0,0,507.69,229l1.16,0V2355l.57.57,148.85-148.85Z"/><path class="cls-2" d="M2219.54,1456a785.64,785.64,0,0,0-229-507.71C1850,807.73,1669.2,731.51,1484.94,719.43V642.85l-.57-.57L1335.52,791.13,1484.37,940l.57-.56V868.16c146.19,11.83,289.07,73.43,400.66,185a641.78,641.78,0,0,1,48.73,54.67,634.81,634.81,0,0,1,88.55,149.51A641.37,641.37,0,0,1,2070,1445.89v697.27H1638.83v149.51h452A128.83,128.83,0,0,0,2219.54,2164v-608A794,794,0,0,0,2219.54,1456Z"/><circle class="cls-1" cx="1458.69" cy="1520.34" r="318.12"/><rect class="cls-3" x="644.49" y="642.28" width="5912.39" height="1713.32"/></svg>